# xmcd
#
# Track frame offsets:
#	150
#	10548
#	30684
#	47284
#	59773
#	76625
#	91272
#	111514
#	126310
#	139735
#	154426
#	170518
#
# Disc length: 2449 seconds
#
# Revision: 0
# Processed by: cddbd v1.5.2PL0 Copyright (c) Steve Scherf et al.
# Submitted via: audiograbber 1.83.01
#
DISCID=97098f0c
DTITLE=Sharon Heaslip - A Thousand Different Pictures
DYEAR=2017
DGENRE=Country
TTITLE0=Well Hello
TTITLE1=A Thousand Different Pictures
TTITLE2=Camooweal
TTITLE3=Lord Hear My Cry
TTITLE4=Dad's Younger Days
TTITLE5=Footsteps To Nowhere
TTITLE6=Where Country Is
TTITLE7=O Lord Take Me There
TTITLE8=And They Danced
TTITLE9=Because I have You
TTITLE10=Where Has My Australia Gone
TTITLE11=That'll Be Me
EXTD=
EXTT0=
EXTT1=
EXTT2=
EXTT3=
EXTT4=
EXTT5=
EXTT6=
EXTT7=
EXTT8=
EXTT9=
EXTT10=
EXTT11=
PLAYORDER=
